<mxfile host="app.diagrams.net" modified="2024-02-25T00:03:36.648Z" agent="Mozilla/5.0 (Macintosh; Intel Mac OS X 10_15_7) AppleWebKit/537.36 (KHTML, like Gecko) Chrome/120.0.0.0 Safari/537.36" etag="Za1dZ8kuhjXUjQKx4I1J" version="22.1.18" type="github">
  <diagram id="9fnjXT7nlAm7Ix4f8WDv" name="Page-1">
    <mxGraphModel dx="1572" dy="1270" grid="0" gridSize="10" guides="1" tooltips="1" connect="1" arrows="1" fold="1" page="1" pageScale="1" pageWidth="700" pageHeight="450" background="#EFF1F3" math="0" shadow="0">
      <root>
        <mxCell id="0" />
        <mxCell id="1" parent="0" />
        <mxCell id="5zGb_LtoR-WvMu9iLxvD-1" value="&lt;font color=&quot;#4a909b&quot; style=&quot;font-size: 17px;&quot;&gt;公众号：小白debug&lt;/font&gt;" style="text;html=1;strokeColor=none;fillColor=none;align=center;verticalAlign=middle;whiteSpace=wrap;rounded=0;fontSize=16;" parent="1" vertex="1">
          <mxGeometry x="95" y="219" width="282" height="30" as="geometry" />
        </mxCell>
        <mxCell id="YSpOYTgw5d68OkFlZB_1-1" value="" style="rounded=1;whiteSpace=wrap;html=1;fillColor=none;strokeWidth=3;strokeColor=#4A909B;dashed=1;" parent="1" vertex="1">
          <mxGeometry x="217" y="265" width="266" height="129.5" as="geometry" />
        </mxCell>
        <mxCell id="YSpOYTgw5d68OkFlZB_1-2" style="edgeStyle=orthogonalEdgeStyle;rounded=0;orthogonalLoop=1;jettySize=auto;html=1;exitX=1;exitY=0.5;exitDx=0;exitDy=0;endArrow=block;endFill=1;strokeColor=#4A909B;strokeWidth=3;" parent="1" source="YSpOYTgw5d68OkFlZB_1-3" target="YSpOYTgw5d68OkFlZB_1-4" edge="1">
          <mxGeometry relative="1" as="geometry" />
        </mxCell>
        <mxCell id="YSpOYTgw5d68OkFlZB_1-3" value="&lt;font style=&quot;font-size: 28px;&quot;&gt;key1&lt;/font&gt;" style="rounded=1;whiteSpace=wrap;html=1;fillColor=#4A909B;fontColor=#F8F8F8;strokeColor=none;" parent="1" vertex="1">
          <mxGeometry x="241" y="282" width="83" height="44" as="geometry" />
        </mxCell>
        <mxCell id="YSpOYTgw5d68OkFlZB_1-4" value="&lt;font style=&quot;font-size: 28px;&quot;&gt;value1&lt;/font&gt;" style="rounded=1;whiteSpace=wrap;html=1;fillColor=#4A909B;fontColor=#F8F8F8;strokeColor=none;" parent="1" vertex="1">
          <mxGeometry x="359" y="282" width="100" height="44" as="geometry" />
        </mxCell>
        <mxCell id="YSpOYTgw5d68OkFlZB_1-5" style="edgeStyle=orthogonalEdgeStyle;rounded=0;orthogonalLoop=1;jettySize=auto;html=1;exitX=1;exitY=0.5;exitDx=0;exitDy=0;endArrow=block;endFill=1;strokeColor=#4A909B;strokeWidth=3;" parent="1" source="YSpOYTgw5d68OkFlZB_1-6" target="YSpOYTgw5d68OkFlZB_1-7" edge="1">
          <mxGeometry relative="1" as="geometry" />
        </mxCell>
        <mxCell id="YSpOYTgw5d68OkFlZB_1-6" value="&lt;font style=&quot;font-size: 28px;&quot;&gt;key2&lt;/font&gt;" style="rounded=1;whiteSpace=wrap;html=1;fillColor=#4A909B;fontColor=#F8F8F8;strokeColor=none;" parent="1" vertex="1">
          <mxGeometry x="241" y="336" width="83" height="44" as="geometry" />
        </mxCell>
        <mxCell id="YSpOYTgw5d68OkFlZB_1-7" value="&lt;font style=&quot;font-size: 28px;&quot;&gt;value2&lt;/font&gt;" style="rounded=1;whiteSpace=wrap;html=1;fillColor=#4A909B;fontColor=#F8F8F8;strokeColor=none;" parent="1" vertex="1">
          <mxGeometry x="359" y="336" width="100" height="44" as="geometry" />
        </mxCell>
        <mxCell id="YSpOYTgw5d68OkFlZB_1-8" value="&lt;font color=&quot;#4a909b&quot; style=&quot;font-size: 27px;&quot;&gt;map&lt;/font&gt;" style="text;html=1;strokeColor=none;fillColor=none;align=center;verticalAlign=middle;whiteSpace=wrap;rounded=0;" parent="1" vertex="1">
          <mxGeometry x="320" y="396.5" width="60" height="30" as="geometry" />
        </mxCell>
        <mxCell id="YSpOYTgw5d68OkFlZB_1-13" value="" style="shape=flexArrow;endArrow=classic;html=1;rounded=0;strokeColor=none;fillColor=#4A909B;" parent="1" edge="1">
          <mxGeometry width="50" height="50" relative="1" as="geometry">
            <mxPoint x="283" y="147.94" as="sourcePoint" />
            <mxPoint x="283" y="198.88" as="targetPoint" />
          </mxGeometry>
        </mxCell>
        <mxCell id="YSpOYTgw5d68OkFlZB_1-15" value="" style="shape=image;verticalLabelPosition=bottom;labelBackgroundColor=default;verticalAlign=top;aspect=fixed;imageAspect=0;image=data:image/svg+xml,PHN2ZyB4bWxuczp4bGluaz0iaHR0cDovL3d3dy53My5vcmcvMTk5OS94bGluayIgeG1sbnM9Imh0dHA6Ly93d3cudzMub3JnLzIwMDAvc3ZnIiBoZWlnaHQ9IjIwMCIgd2lkdGg9IjIwMCIgdmVyc2lvbj0iMS4xIiB2aWV3Qm94PSIwIDAgMTAyNCAxMDI0IiBjbGFzcz0iaWNvbiI+PHBhdGggZmlsbD0iIzRhOTA5YyIgZD0iTTczNiAyNTZIMjg4Yy0xNy43IDAtMzIgMTQuMy0zMiAzMnYwLjNjMCAxNy43IDE0LjMgMzIgMzIgMzJoMTkxLjl2NDE1LjZjMCAxNy43IDE0LjMgMzIgMzIgMzJzMzItMTQuMyAzMi0zMlYzMjAuMkg3MzZjMTcuNyAwIDMyLTE0LjMgMzItMzJ2LTAuMmMwLTE3LjctMTQuMy0zMi0zMi0zMnoiLz48cGF0aCBmaWxsPSIjNGE5MDljIiBkPSJNODk1LjkgOTU5SDEyOC4xQzkyLjcgOTU5IDY0IDkzMC4zIDY0IDg5NC45VjEyOC4xQzY0IDkyLjcgOTIuNyA2NCAxMjguMSA2NGg3NjcuOGMzNS4zIDAgNjQuMSAyOC43IDY0LjEgNjQuMXY3NjYuOGMwIDM1LjQtMjguNyA2NC4xLTY0LjEgNjQuMXogbTAtODMxSDEyOHMtMC4xIDAtMC4xIDAuMVY4OTVzMCAwLjEgMC4xIDAuMWg3Njh2LTAuMWwtMC4xLTc2N2MwLjEgMCAwLjEgMCAwIDB6Ii8+PC9zdmc+;" parent="1" vertex="1">
          <mxGeometry x="224" y="17" width="95" height="95" as="geometry" />
        </mxCell>
        <mxCell id="YSpOYTgw5d68OkFlZB_1-16" value="&lt;font color=&quot;#4a909b&quot; style=&quot;font-size: 27px;&quot;&gt;线程&lt;/font&gt;" style="text;html=1;strokeColor=none;fillColor=none;align=center;verticalAlign=middle;whiteSpace=wrap;rounded=0;" parent="1" vertex="1">
          <mxGeometry x="241.5" y="108" width="60" height="30" as="geometry" />
        </mxCell>
        <mxCell id="mrNlgEb5chQkEStM5b_y-1" value="" style="shape=image;verticalLabelPosition=bottom;labelBackgroundColor=default;verticalAlign=top;aspect=fixed;imageAspect=0;image=data:image/svg+xml,PHN2ZyB4bWxuczp4bGluaz0iaHR0cDovL3d3dy53My5vcmcvMTk5OS94bGluayIgeG1sbnM9Imh0dHA6Ly93d3cudzMub3JnLzIwMDAvc3ZnIiBoZWlnaHQ9IjIwMCIgd2lkdGg9IjIwMCIgdmVyc2lvbj0iMS4xIiB2aWV3Qm94PSIwIDAgMTAyNCAxMDI0IiBjbGFzcz0iaWNvbiI+PHBhdGggZmlsbD0iIzRhOTA5YyIgZD0iTTc0NCA0MThoLTUuNVYyOTNjMC0xMDcuNTMtODcuNDgtMTk1LTE5NS0xOTVINDgxYy0xMDcuNTMgMC0xOTUgODcuNDgtMTk1IDE5NXY0NWE0MCA0MCAwIDAgMCA4MCAwdi00NWExMTUuMTQgMTE1LjE0IDAgMCAxIDExNS0xMTVoNjIuNWExMTUuMTQgMTE1LjE0IDAgMCAxIDExNSAxMTV2MTI1SDI4MGE4NC4yNSA4NC4yNSAwIDAgMC04NCA4NHYzNDBhODQuMjUgODQuMjUgMCAwIDAgODQgODRoNDY0YTg0LjI1IDg0LjI1IDAgMCAwIDg0LTg0VjUwMmE4NC4yNSA4NC4yNSAwIDAgMC04NC04NHpNNTYwIDcwNC43OEw1NzIgODAxSDQ1MmwxMi05Ni4yMmE4OCA4OCAwIDEgMSA5NS45NCAweiIvPjwvc3ZnPg==;" vertex="1" parent="1">
          <mxGeometry x="309" y="184" width="81" height="81" as="geometry" />
        </mxCell>
        <mxCell id="mrNlgEb5chQkEStM5b_y-2" value="" style="shape=flexArrow;endArrow=classic;html=1;rounded=0;strokeColor=none;fillColor=#4A909B;" edge="1" parent="1">
          <mxGeometry width="50" height="50" relative="1" as="geometry">
            <mxPoint x="257" y="195.94000000000005" as="sourcePoint" />
            <mxPoint x="257" y="145.00000000000006" as="targetPoint" />
          </mxGeometry>
        </mxCell>
        <mxCell id="mrNlgEb5chQkEStM5b_y-3" value="" style="shape=flexArrow;endArrow=classic;html=1;rounded=0;strokeColor=none;fillColor=#4A909B;" edge="1" parent="1">
          <mxGeometry width="50" height="50" relative="1" as="geometry">
            <mxPoint x="440" y="147.94" as="sourcePoint" />
            <mxPoint x="440" y="198.88" as="targetPoint" />
          </mxGeometry>
        </mxCell>
        <mxCell id="mrNlgEb5chQkEStM5b_y-4" value="" style="shape=image;verticalLabelPosition=bottom;labelBackgroundColor=default;verticalAlign=top;aspect=fixed;imageAspect=0;image=data:image/svg+xml,PHN2ZyB4bWxuczp4bGluaz0iaHR0cDovL3d3dy53My5vcmcvMTk5OS94bGluayIgeG1sbnM9Imh0dHA6Ly93d3cudzMub3JnLzIwMDAvc3ZnIiBoZWlnaHQ9IjIwMCIgd2lkdGg9IjIwMCIgdmVyc2lvbj0iMS4xIiB2aWV3Qm94PSIwIDAgMTAyNCAxMDI0IiBjbGFzcz0iaWNvbiI+PHBhdGggZmlsbD0iIzRhOTA5YyIgZD0iTTczNiAyNTZIMjg4Yy0xNy43IDAtMzIgMTQuMy0zMiAzMnYwLjNjMCAxNy43IDE0LjMgMzIgMzIgMzJoMTkxLjl2NDE1LjZjMCAxNy43IDE0LjMgMzIgMzIgMzJzMzItMTQuMyAzMi0zMlYzMjAuMkg3MzZjMTcuNyAwIDMyLTE0LjMgMzItMzJ2LTAuMmMwLTE3LjctMTQuMy0zMi0zMi0zMnoiLz48cGF0aCBmaWxsPSIjNGE5MDljIiBkPSJNODk1LjkgOTU5SDEyOC4xQzkyLjcgOTU5IDY0IDkzMC4zIDY0IDg5NC45VjEyOC4xQzY0IDkyLjcgOTIuNyA2NCAxMjguMSA2NGg3NjcuOGMzNS4zIDAgNjQuMSAyOC43IDY0LjEgNjQuMXY3NjYuOGMwIDM1LjQtMjguNyA2NC4xLTY0LjEgNjQuMXogbTAtODMxSDEyOHMtMC4xIDAtMC4xIDAuMVY4OTVzMCAwLjEgMC4xIDAuMWg3Njh2LTAuMWwtMC4xLTc2N2MwLjEgMCAwLjEgMCAwIDB6Ii8+PC9zdmc+;" vertex="1" parent="1">
          <mxGeometry x="381" y="17" width="95" height="95" as="geometry" />
        </mxCell>
        <mxCell id="mrNlgEb5chQkEStM5b_y-5" value="&lt;font color=&quot;#4a909b&quot; style=&quot;font-size: 27px;&quot;&gt;线程&lt;/font&gt;" style="text;html=1;strokeColor=none;fillColor=none;align=center;verticalAlign=middle;whiteSpace=wrap;rounded=0;" vertex="1" parent="1">
          <mxGeometry x="398.5" y="108" width="60" height="30" as="geometry" />
        </mxCell>
        <mxCell id="mrNlgEb5chQkEStM5b_y-6" value="" style="shape=flexArrow;endArrow=classic;html=1;rounded=0;strokeColor=none;fillColor=#4A909B;" edge="1" parent="1">
          <mxGeometry width="50" height="50" relative="1" as="geometry">
            <mxPoint x="414" y="195.94000000000005" as="sourcePoint" />
            <mxPoint x="414" y="145.00000000000006" as="targetPoint" />
          </mxGeometry>
        </mxCell>
      </root>
    </mxGraphModel>
  </diagram>
</mxfile>
